# xmcd CD database file
#
# Track frame offsets:
#	150
#	19801
#	48941
#	77339
#	97535
#	118199
#	132659
#	159149
#	182249
#	204149
#	222901
#	236363
#	253725
#
# Disc length: 3850 seconds
#
# Revision: 0
# Processed by: cddbd v1.5.1PL2 Copyright (c) Steve Scherf et al.
# Submitted via: CDex 1.50Beta3
#
DISCID=9e0f080d
DTITLE=Jay Geils - Gerry Beaudoin and the Kings of Strings - Featuring Aaron Weinstein
DYEAR=2006
DGENRE=Jazz
TTITLE0=Desert Sands
TTITLE1=In a Mellotone  
TTITLE2=Out of Nowhere 
TTITLE3=Blue Benedetto
TTITLE4=Here's That Rainy Day
TTITLE5=Minor Swing
TTITLE6=I Thought About You
TTITLE7=Take the A Train
TTITLE8=Sweet One
TTITLE9=Flat Foot Floogie
TTITLE10=Jackie's Serenade
TTITLE11=Sweet Georgia Brown
TTITLE12=All Blues
EXTD=YEAR: 2006
EXTT0=
EXTT1=
EXTT2=
EXTT3=
EXTT4=
EXTT5=
EXTT6=
EXTT7=
EXTT8=
EXTT9=
EXTT10=
EXTT11=
EXTT12=
PLAYORDER=
